<?xml version="1.0" encoding="utf-8"?>
<!-- Generator: Adobe Illustrator 24.1.3, SVG Export Plug-In . SVG Version: 6.00 Build 0)  -->
<svg version="1.1" id="Layer_1" xmlns="http://www.w3.org/2000/svg" xmlns:xlink="http://www.w3.org/1999/xlink" x="0px" y="0px"
	 viewBox="0 0 79.6 79.6" style="enable-background:new 0 0 79.6 79.6;" xml:space="preserve">
<style type="text/css">
	.st0{fill:#002C72;}
</style>
<path id="ic_search_24px" class="st0" d="M56.9,50.1h-3.6L52,48.9c10.6-12.4,9.2-31.1-3.2-41.7S17.8-2.1,7.1,10.3S-2.1,41.4,10.3,52
	c11.1,9.5,27.5,9.5,38.5,0l1.2,1.3v3.6l22.7,22.7l6.8-6.8L56.9,50.1z M29.6,50.1c-11.3,0-20.5-9.2-20.5-20.5S18.3,9.2,29.6,9.2
	s20.5,9.2,20.5,20.5l0,0C50.1,40.9,41,50.1,29.6,50.1C29.7,50.1,29.6,50.1,29.6,50.1z"/>
</svg>
